<?xml version="1.0" encoding="utf-8"?>
<!-- Generator: Adobe Illustrator 25.0.1, SVG Export Plug-In . SVG Version: 6.00 Build 0)  -->
<svg version="1.1" xmlns="http://www.w3.org/2000/svg" xmlns:xlink="http://www.w3.org/1999/xlink" x="0px" y="0px"
	 viewBox="0 0 1080 1080" style="enable-background:new 0 0 1080 1080;" xml:space="preserve">
<style type="text/css">
	.st0{fill:#F3E5B1;}
	.st1{fill:#1F2634;}
	.st2{font-family:'GillSansMT';}
	.st3{font-size:97.4706px;}
	.st4{font-size:38.9883px;}
	.st5{letter-spacing:11;}
</style>
<g id="Layer_1">
	<g>
		<rect x="333.53" y="229.67" class="st0" width="422.48" height="441.53"/>
		<g>
			<polygon class="st1" points="498.52,361.49 498.52,672.3 558.08,672.3 558.08,321.72 			"/>
			<polygon class="st0" points="618.65,363.01 618.65,672.3 556.9,672.3 556.9,321.73 557.68,321.19 569.42,329.26 574.78,332.93 
				584.43,339.55 589.79,343.23 591.26,344.24 599.44,349.85 604.8,353.52 606.27,354.54 			"/>
			<polygon class="st0" points="684.93,479.62 671.02,471.98 653.76,462.49 636.48,452.98 636.1,453.28 636.1,671.2 684.93,671.2 
							"/>
			<polygon class="st1" points="609.3,474.85 610.1,671.2 636.1,671.2 636.1,453.28 			"/>
			<g>
				<g>
					<polygon class="st1" points="574.78,332.93 574.78,554.56 569.42,551.77 569.42,329.26 					"/>
				</g>
			</g>
			<g>
				<g>
					<polygon class="st1" points="589.79,343.23 589.79,562.33 584.43,559.54 584.43,339.55 					"/>
				</g>
			</g>
			<g>
				<g>
					<polygon class="st1" points="604.8,353.52 604.8,451.8 603.08,450.92 599.44,449.01 599.44,349.85 					"/>
				</g>
			</g>
			<polygon class="st1" points="476.88,416.08 404.62,460.56 404.62,671.79 477.48,671.79 477.48,416.4 			"/>
			<polygon class="st0" points="535.25,447.06 477.48,416.4 477.48,671.79 535.25,671.79 			"/>
			<g>
				<g>
					<polygon class="st1" points="521.84,438.83 521.84,612.72 516.48,609.93 516.48,438.83 					"/>
				</g>
			</g>
			<g>
				<g>
					<polygon class="st1" points="500.99,428.11 500.99,601.92 495.63,599.13 495.63,428.11 					"/>
				</g>
			</g>
			<g>
				<g>
					<polygon class="st1" points="656.47,462.49 656.47,588.01 651.11,585.22 651.11,462.49 					"/>
				</g>
			</g>
			<g>
				<g>
					<polygon class="st1" points="673.7,471.98 673.7,596.93 668.34,594.14 668.34,471.98 					"/>
				</g>
			</g>
		</g>
		<g>
			<path class="st1" d="M734.13,377.43c-10.34-14.7-21.6-28.73-33.68-41.98c-6.08-6.6-12.31-13.07-18.85-19.19
				c-2.93-2.75-5.87-5.48-8.9-8.12c0.29-0.37,0.58-0.72,0.89-1.03c0,0,14.56,1.95,38.43,17.16c0,0,0.3-28.42-29.36-31.7
				c0,0,26.21-11.01,39.49-8.54c0,0-20.47-37.47-49.38-0.93c0,0,9.72-24.07,13.55-29.58c0,0-36.34-2.15-25.21,31.45
				c0,0-22.2-27.36-40.88,4.95c0,0,20.76-2.04,30.36,3.95c0,0-40.39,8.15-25.09,38.84c0,0,21.47-25.13,30.7-25.71
				c0,0-13.96,24.25,8.35,42.71c0,0,0.35-27.15,6.56-39.06c0,0,0,0,0,0c2.77,2.59,5.5,5.25,8.19,7.93
				c6.28,6.28,12.27,12.86,18.09,19.56c11.58,13.46,22.31,27.65,32.1,42.44c9.61,14.47,18.37,29.51,26.14,45.01v-14.26
				C748.98,399.72,741.81,388.4,734.13,377.43z"/>
			<path class="st1" d="M425.87,336.63c8.8-7.11,29.65-7.64,29.65-7.64c-22.5-29.78-41.18,0.1-41.18,0.1
				c6.93-34.71-28.87-28.13-28.87-28.13c4.48,5,17.07,27.7,17.07,27.7c-33.17-32.73-48.9,6.97-48.9,6.97
				c12.87-4.07,40.24,3.64,40.24,3.64c-29.03,6.89-25.26,35.06-25.26,35.06c21.83-18.01,36.04-21.74,36.04-21.74
				c0.34,0.27,0.68,0.58,1.01,0.91c-2.68,3-5.27,6.05-7.84,9.14c-5.73,6.88-11.12,14.08-16.35,21.37
				c-10.36,14.63-19.83,29.92-28.3,45.79c-7.48,14.08-14.19,28.57-20.09,43.41v20.87c6.72-21.16,15.16-41.8,25.09-61.7
				c7.89-15.89,16.81-31.28,26.64-46.04c4.95-7.38,10.09-14.65,15.57-21.65c2.34-2.98,4.72-5.96,7.15-8.87
				c7.63,11.05,11.3,37.96,11.3,37.96c19.88-21.05,3.06-43.41,3.06-43.41c9.23-0.56,33.61,21.75,33.61,21.75
				C466.95,339.78,425.87,336.63,425.87,336.63z"/>
		</g>
	</g>
</g>
<g id="Layer_2">
	<text transform="matrix(1 0 0 1 240.1738 780.4785)"><tspan x="0" y="0" class="st1 st2 st3">WHITE PALM</tspan><tspan x="127.95" y="58.48" class="st1 st2 st4 st5">PROPERTIES</tspan></text>
</g>
</svg>
